<svg xmlns="http://www.w3.org/2000/svg" version="1.1" xmlns:xlink="http://www.w3.org/1999/xlink" xmlns:svgjs="http://svgjs.com/svgjs" width="1440" height="560" preserveAspectRatio="none" viewBox="0 0 1440 560"><g mask="url(&quot;#SvgjsMask1001&quot;)" fill="none"><rect width="1440" height="560" x="0" y="0" fill="rgba(36, 94, 155, 1)"></rect><path d="M0,425.237C83.302,421.344,164.781,409.765,239.362,372.454C320.301,331.962,413.036,287.841,444.36,202.932C475.478,118.582,417.534,30.525,397.867,-57.205C379.944,-137.156,376.329,-219.256,333.992,-289.405C286.13,-368.71,230.579,-456.505,141.517,-481.962C52.539,-507.395,-36.963,-453.284,-123.362,-420.131C-203.179,-389.504,-297.683,-369.47,-342.066,-296.402C-385.59,-224.747,-340.749,-133.568,-348.152,-50.057C-355.007,27.274,-399.9,99.35,-383.881,175.313C-365.939,260.391,-327.053,348.082,-254.186,395.522C-181.218,443.027,-86.974,429.302,0,425.237" fill="#1d4b7c"></path><path d="M1440 1067.722C1535.809 1068.04 1615.1779999999999 1005.775 1704.924 972.23 1823.192 928.024 1984.437 946.262 2051.371 839.204 2116.9629999999997 734.292 2050.842 595.634 2014.279 477.431 1982.175 373.645 1912.6680000000001 292.694 1854.033 201.238 1784.21 92.33300000000003 1751.675-51.07299999999998 1637.021-110.99099999999999 1517.435-173.486 1354.86-191.019 1240.5149999999999-119.38400000000001 1125.6480000000001-47.422000000000025 1151.128 131.26600000000002 1073.2440000000001 242.204 1007.242 336.217 855.078 360.645 825.574 471.659 796.014 582.883 860.271 700.377 926.453 794.529 986.225 879.563 1084.44 921.659 1176.204 970.475 1260.652 1015.399 1344.347 1067.404 1440 1067.722" fill="#2b71ba"></path></g><defs><mask id="SvgjsMask1001"><rect width="1440" height="560" fill="#ffffff"></rect></mask></defs></svg>